<?xml version="1.0" encoding="UTF-8"?>
<svg version="1.1" xmlns="http://www.w3.org/2000/svg" width="472" height="155">
<path d="M0 0 C7.31106273 -0.27631283 14.62660172 -0.35726419 21.94206238 -0.43515015 C24.6263716 -0.4664227 27.30848733 -0.52223011 29.99186707 -0.59921265 C33.89006361 -0.70289698 37.78512934 -0.74711004 41.68449402 -0.77938843 C42.87332687 -0.82270294 44.06215973 -0.86601746 45.28701782 -0.91064453 C51.85813156 -0.89584637 55.52691294 -0.09301523 60.50456238 4.34268188 C62.03818485 5.91657515 63.5501977 7.51203595 65.03215027 9.13467407 C66.0759702 10.14068839 67.12623956 11.1401214 68.18693542 12.12832642 C70.52542808 14.42954189 72.86135572 16.7330091 75.18595886 19.04824829 C76.68373562 20.53608296 78.19186606 22.01293785 79.70011902 23.49014282 C80.65779982 24.44131219 81.61485615 25.39311081 82.57121277 26.34561157 C83.429245 27.1942981 84.28727722 28.04298462 85.17131042 28.91738892 C87.03215027 31.13467407 87.03215027 31.13467407 87.03215027 34.13467407 C84.72215027 34.13467407 82.41215027 34.13467407 80.03215027 34.13467407 C80.03215027 49.97467407 80.03215027 65.81467407 80.03215027 82.13467407 C84.32215027 82.13467407 88.61215027 82.13467407 93.03215027 82.13467407 C92.70215027 83.78467407 92.37215027 85.43467407 92.03215027 87.13467407 C66.77225365 87.20466861 41.5123715 87.2576153 16.25239754 87.29011059 C4.52448923 87.30559787 -7.20335893 87.32672285 -18.93122864 87.36099243 C-29.14991263 87.39083792 -39.36855307 87.41023552 -49.58727944 87.41693956 C-55.00103464 87.42086006 -60.41466522 87.43011222 -65.82838058 87.45186424 C-70.91888515 87.47215285 -76.00921318 87.4785234 -81.09975433 87.47399712 C-82.97271558 87.47482575 -84.84568245 87.48083661 -86.71860886 87.4922905 C-89.26674312 87.50711555 -91.81420208 87.50366467 -94.36235046 87.49543762 C-95.11136875 87.50417615 -95.86038704 87.51291467 -96.63210285 87.521918 C-98.69198418 87.50381756 -98.69198418 87.50381756 -101.96784973 87.13467407 C-102.62784973 86.14467407 -103.28784973 85.15467407 -103.96784973 84.13467407 C-103.47284973 83.14467407 -103.47284973 83.14467407 -102.96784973 82.13467407 C-100.24564591 81.8213694 -97.63556544 81.62202425 -94.90534973 81.50967407 C-90.97628723 81.32404907 -90.97628723 81.32404907 -86.96784973 81.13467407 C-86.96784973 75.19467407 -86.96784973 69.25467407 -86.96784973 63.13467407 C-88.28784973 62.47467407 -89.60784973 61.81467407 -90.96784973 61.13467407 C-93.12202071 59.46190925 -93.87382785 58.69273946 -94.33113098 55.97842407 C-94.31437317 55.20498657 -94.29761536 54.43154907 -94.28034973 53.63467407 C-94.27648254 52.86123657 -94.27261536 52.08779907 -94.26863098 51.29092407 C-93.96784973 49.13467407 -93.96784973 49.13467407 -91.96784973 46.13467407 C-91.41368691 43.83181966 -91.02291661 41.52822483 -90.62800598 39.19326782 C-89.96784973 37.13467407 -89.96784973 37.13467407 -86.96784973 35.13467407 C-84.03034973 34.69717407 -84.03034973 34.69717407 -80.96784973 35.13467407 C-77.19539641 38.59275628 -76.14438359 42.24753345 -74.96784973 47.13467407 C-74.63784973 48.12467407 -74.30784973 49.11467407 -73.96784973 50.13467407 C-73.30385728 55.99994071 -73.30385728 55.99994071 -75.01472473 58.92373657 C-76.34284973 60.57217407 -76.34284973 60.57217407 -78.96784973 63.13467407 C-79.62784973 63.13467407 -80.28784973 63.13467407 -80.96784973 63.13467407 C-80.96784973 69.07467407 -80.96784973 75.01467407 -80.96784973 81.13467407 C-77.8219603 81.16151104 -74.67629702 81.18143309 -71.53034973 81.19717407 C-70.6325177 81.20555298 -69.73468567 81.21393188 -68.80964661 81.2225647 C-67.52864075 81.22739868 -67.52864075 81.22739868 -66.22175598 81.23233032 C-65.03561707 81.24018555 -65.03561707 81.24018555 -63.82551575 81.24819946 C-61.95192284 81.33963316 -61.95192284 81.33963316 -60.96784973 80.13467407 C-60.73300658 77.53059049 -60.59695326 74.99369497 -60.53034973 72.38467407 C-60.46170715 71.30959595 -60.46170715 71.30959595 -60.39167786 70.21279907 C-60.27923993 66.05799325 -60.27923993 66.05799325 -62.2993927 62.5741272 C-63.79817245 61.35359625 -65.38063659 60.23775656 -66.96784973 59.13467407 C-68.49999861 56.07037631 -68.19723521 53.51810987 -67.96784973 50.13467407 C-66.99899602 48.44971109 -65.99798251 46.78288651 -64.96784973 45.13467407 C-64.80284973 43.93842407 -64.63784973 42.74217407 -64.46784973 41.50967407 C-63.96784973 38.13467407 -63.96784973 38.13467407 -62.84284973 36.19717407 C-59.82871721 34.48916564 -57.34696574 34.77262593 -53.96784973 35.13467407 C-51.16417105 37.25566031 -50.50318487 39.10839845 -49.90534973 42.50967407 C-49.39284955 45.19812842 -48.89387456 47.30209157 -47.78034973 49.82217407 C-46.64965245 53.0403125 -46.95398128 54.89029502 -47.96784973 58.13467407 C-50.46784973 60.94717407 -50.46784973 60.94717407 -52.96784973 63.13467407 C-55.08710577 65.25393011 -54.38615991 69.75428337 -54.53034973 72.69717407 C-54.59512512 73.90663696 -54.59512512 73.90663696 -54.66120911 75.14053345 C-54.76760235 77.13836212 -54.86825861 79.13649477 -54.96784973 81.13467407 C-50.34784973 81.13467407 -45.72784973 81.13467407 -40.96784973 81.13467407 C-40.89377033 74.78094037 -40.83928094 68.42745728 -40.80305481 62.07339478 C-40.78795529 59.91124087 -40.76747403 57.74911764 -40.74153137 55.58706665 C-40.70519956 52.48176507 -40.68813511 49.37686793 -40.67488098 46.27139282 C-40.65939713 45.30255661 -40.64391327 44.3337204 -40.62796021 43.33552551 C-40.62762032 41.98446465 -40.62762032 41.98446465 -40.62727356 40.60610962 C-40.62061172 39.81335129 -40.61394989 39.02059296 -40.60708618 38.20381165 C-41.05360169 35.64284889 -41.99616826 34.76210629 -43.96784973 33.13467407 C-41.72349979 30.0486929 -39.34316256 27.53486965 -36.43269348 25.09951782 C-33.14341976 22.25789895 -30.11595049 19.26794626 -27.12800598 16.11123657 C-26.29204895 15.23596313 -25.45609192 14.3606897 -24.59480286 13.45889282 C-22.87526755 11.64899352 -21.16960037 9.82582358 -19.47761536 7.99014282 C-18.64036926 7.12260376 -17.80312317 6.2550647 -16.94050598 5.36123657 C-15.83074402 4.17908569 -15.83074402 4.17908569 -14.69856262 2.97305298 C-10.10607421 -0.11871616 -5.40266961 0.2451605 0 0 Z " fill="#010000" transform="translate(241.9678497314453,2.865325927734375)"/>
<path d="M0 0 C1.2065625 0.0309375 1.2065625 0.0309375 2.4375 0.0625 C3.74582531 6.30953676 3.00560793 11.73955575 2 18 C1.85240234 18.97001953 1.70480469 19.94003906 1.55273438 20.93945312 C1.18991534 23.31533263 0.81797493 25.68939523 0.4375 28.0625 C2.04245567 27.94807539 3.64648119 27.82055306 5.25 27.6875 C6.14332031 27.61789063 7.03664063 27.54828125 7.95703125 27.4765625 C10.68148499 27.19604964 10.68148499 27.19604964 13.4375 25.0625 C14.31374488 22.35527149 14.31374488 22.35527149 14.875 19.25 C15.94232406 14.60825215 16.80830055 11.36177222 20.4375 8.0625 C23.42157975 6.2695179 25.59564662 5.81122845 29.0625 5.875 C29.83851563 5.88144531 30.61453125 5.88789062 31.4140625 5.89453125 C33.4375 6.0625 33.4375 6.0625 35.4375 7.0625 C35.34210938 8.14789063 35.24671875 9.23328125 35.1484375 10.3515625 C35.03581961 11.79682537 34.92387618 13.24214091 34.8125 14.6875 C34.74804688 15.40035156 34.68359375 16.11320312 34.6171875 16.84765625 C34.27891415 21.45663058 34.79008068 24.67357373 36.4375 29.0625 C36.4375 30.3825 36.4375 31.7025 36.4375 33.0625 C33.56361658 34.16783978 32.52456461 34.09467605 29.5625 33 C25.72000781 31.84725234 24.13718142 32.77565429 20.4375 34.0625 C18.375 33.125 18.375 33.125 16.4375 32.0625 C14.77024222 32.39286404 13.10373225 32.72700189 11.4375 33.0625 C8.69446356 33.20471126 5.99276314 33.29264289 3.25 33.3125 C2.52619141 33.333125 1.80238281 33.35375 1.05664062 33.375 C-1.04296875 33.390625 -1.04296875 33.390625 -4.5625 33.0625 C-7.1461781 29.18698285 -6.48478106 27.77719944 -5.75 23.25 C-4.74365447 16.72439048 -4.17018281 10.29246792 -3.80859375 3.6953125 C-3.47109962 0.08466097 -3.47109962 0.08466097 0 0 Z M24.4375 12.0625 C21.32350886 14.97903387 21.32350886 14.97903387 20.33984375 19.0078125 C20.35144531 19.72710937 20.36304688 20.44640625 20.375 21.1875 C20.395625 22.46625 20.41625 23.745 20.4375 25.0625 C23.62594618 24.11458357 25.19235405 23.36484667 27.3125 20.75 C28.60982844 17.65082651 28.4295281 16.21895305 27.4375 13.0625 C26.4475 12.7325 25.4575 12.4025 24.4375 12.0625 Z " fill="#040000" transform="translate(412.5625,112.9375)"/>
<path d="M0 0 C4.3031706 0.03581712 5.81286756 0.07500715 9.4375 2.5625 C11.20732976 5.30878755 11.97298223 7.14312607 12.25 10.375 C13.4875 9.6325 13.4875 9.6325 14.75 8.875 C19.17812859 6.97723061 21.47091766 6.75834421 26.25 7.375 C28.75 9.1875 28.75 9.1875 30.25 12.375 C31.1364643 18.98781987 30.62003855 24.59779107 27.25 30.375 C25.37786347 32.52449009 24.15540628 33.22565463 21.35546875 33.6875 C17.62637222 33.90889349 15.8404942 33.82922631 12.8125 31.5 C10.15073872 27.88000466 10.13993265 25.72133091 10.1875 21.25 C10.19652344 20.15429688 10.20554688 19.05859375 10.21484375 17.9296875 C10.22644531 17.08664063 10.23804688 16.24359375 10.25 15.375 C9.63511719 15.79652344 9.02023438 16.21804687 8.38671875 16.65234375 C7.57847656 17.20019531 6.77023438 17.74804688 5.9375 18.3125 C5.13699219 18.85777344 4.33648437 19.40304688 3.51171875 19.96484375 C1.25 21.375 1.25 21.375 -1.75 22.375 C-2.62867729 26.10937848 -2.83912219 29.54274573 -2.75 33.375 C-4.41611905 33.417721 -6.08382885 33.41563832 -7.75 33.375 C-9.56597976 31.55902024 -8.92360707 28.8201551 -8.9375 26.375 C-8.90149522 20.54822573 -8.48907207 14.84869675 -7.8125 9.0625 C-7.72572998 8.31548828 -7.63895996 7.56847656 -7.54956055 6.79882812 C-6.74971925 0.44736444 -6.3436103 0.20113886 0 0 Z M-0.75 5.375 C-1.08 7.685 -1.41 9.995 -1.75 12.375 C0.23 13.365 0.23 13.365 2.25 14.375 C3.85414215 13.18976003 3.85414215 13.18976003 5.25 11.375 C5.58374277 8.79083753 5.58374277 8.79083753 5.25 6.375 C4.18354885 5.07866379 4.18354885 5.07866379 1.6875 5.3125 C0.883125 5.333125 0.07875 5.35375 -0.75 5.375 Z M17.625 13.875 C15.74709408 17.2893744 15.2181546 20.48986171 15.25 24.375 C16.03785353 26.7987259 16.03785353 26.7987259 17.25 28.375 C19.62305578 28.79280879 19.62305578 28.79280879 22.25 28.375 C24.837193 25.52016634 25.46598902 22.99712834 25.625 19.25 C25.56759142 15.52062281 25.56759142 15.52062281 23.9375 13.375 C21.34849773 11.84077643 19.84846581 11.82257003 17.625 13.875 Z " fill="#050000" transform="translate(156.75,112.625)"/>
<path d="M0 0 C1.9375 0.0625 1.9375 0.0625 4 1 C5.03013277 2.64821244 6.03114628 4.31503702 7 6 C7.99 6.33 8.98 6.66 10 7 C9.67 8.65 9.34 10.3 9 12 C7.35 12.33 5.7 12.66 4 13 C3.89184775 14.76949095 3.81433917 16.54087487 3.75 18.3125 C3.70359375 19.29863281 3.6571875 20.28476563 3.609375 21.30078125 C3.73096572 24.14403694 3.73096572 24.14403694 6.015625 25.85546875 C6.67046875 26.23316406 7.3253125 26.61085937 8 27 C7.8125 28.875 7.8125 28.875 7 31 C4.75 32.4375 4.75 32.4375 2 33 C-0.8125 32.25 -0.8125 32.25 -3 30 C-3.83190638 24.68140755 -3.10211219 19.23503289 -2 14 C-4.31 14 -6.62 14 -9 14 C-9 19.61 -9 25.22 -9 31 C-10.65 31.33 -12.3 31.66 -14 32 C-16 30 -16 30 -16.23046875 26.59375 C-16.22647854 25.22909733 -16.21172843 23.8644434 -16.1875 22.5 C-16.18685547 21.81035156 -16.18621094 21.12070313 -16.18554688 20.41015625 C-16.14055525 15.28111049 -16.14055525 15.28111049 -15 13 C-19.26401741 15.9174856 -20.8585012 17.95838028 -22 23 C-22.421452 25.99426942 -22.74558255 28.98716176 -23 32 C-24.485 32.495 -24.485 32.495 -26 33 C-28.92722574 30.55976904 -28.92722574 30.55976904 -29.2487793 28.08642578 C-29.19117432 27.3798584 -29.13356934 26.67329102 -29.07421875 25.9453125 C-29.01943359 25.16542969 -28.96464844 24.38554687 -28.90820312 23.58203125 C-28.79895508 22.36580078 -28.79895508 22.36580078 -28.6875 21.125 C-28.56539635 19.52351418 -28.44427583 17.92195305 -28.32421875 16.3203125 C-28.26282715 15.57040039 -28.20143555 14.82048828 -28.13818359 14.04785156 C-28.02469608 12.36599073 -28.00858547 10.67783736 -28.01953125 8.9921875 C-28 7 -28 7 -27 6 C-24.52836314 5.87317377 -22.09709389 5.81479749 -19.625 5.8125 C-18.93921875 5.80025391 -18.2534375 5.78800781 -17.546875 5.77539062 C-13.80703203 5.76447669 -12.1900263 5.8733158 -9 8 C-5.36060068 7.68269476 -5.36060068 7.68269476 -2 7 C-2.04125 6.21625 -2.0825 5.4325 -2.125 4.625 C-2 2 -2 2 0 0 Z " fill="#040000" transform="translate(79,114)"/>
<path d="M0 0 C0.33 0.33 0.66 0.66 1 1 C4.36629251 1.14636054 6.78419562 1.07193479 10 0 C13.82669043 3.42388092 15.72278474 6.00724943 17 11 C19.35 9.05 19.35 9.05 19.5 5.5 C20 2 20 2 22 0 C24.125 0.375 24.125 0.375 26 1 C26.88863446 10.06407153 23.12058848 18.06690442 19 26 C17.35 25.67 15.7 25.34 14 25 C13.81824219 24.443125 13.63648438 23.88625 13.44921875 23.3125 C12.64494222 20.87079896 11.82308216 18.43542119 11 16 C10.74863281 15.2265625 10.49726563 14.453125 10.23828125 13.65625 C9.58145774 11.73790833 8.79873895 9.86372422 8 8 C7.01 7.67 6.02 7.34 5 7 C4.97421875 7.64066406 4.9484375 8.28132812 4.921875 8.94140625 C4.52101095 15.05458307 3.55562028 18.98030078 0 24 C-3.70503565 26.47002376 -6.70486777 26.76877853 -11 26 C-14 24.1875 -14 24.1875 -16 21 C-17.08740215 15.29559527 -16.69838618 10.4525931 -13.6875 5.4375 C-9.80376947 -0.17233299 -6.40424789 -0.30988296 0 0 Z M-8.0625 6.375 C-10.64337169 9.87166487 -10.43997367 12.41751184 -10.43359375 16.66015625 C-9.92868886 19.38482316 -9.12085751 20.2841869 -7 22 C-4.3094472 20.77992056 -4.3094472 20.77992056 -2 19 C-1.28987428 15.6678716 -0.89706329 12.40774672 -1 9 C-2.6688002 6.32380887 -2.6688002 6.32380887 -5 5 C-6.27446103 4.90754997 -6.27446103 4.90754997 -8.0625 6.375 Z " fill="#050000" transform="translate(340,120)"/>
<path d="M0 0 C1.02673828 0.00580078 1.02673828 0.00580078 2.07421875 0.01171875 C3.07775391 0.00591797 3.07775391 0.00591797 4.1015625 0 C7.82152327 0.00730837 11.19308033 0.39786102 14.82421875 1.13671875 C16.04109375 0.95109375 17.25796875 0.76546875 18.51171875 0.57421875 C19.60484375 0.42984375 20.69796875 0.28546875 21.82421875 0.13671875 C23.82421875 2.13671875 23.82421875 2.13671875 23.984375 5.5859375 C23.96173577 6.99889153 23.92875016 8.41170858 23.88671875 9.82421875 C23.75543942 15.07052968 23.94797659 19.95398412 24.82421875 25.13671875 C22.44921875 25.76171875 22.44921875 25.76171875 19.82421875 26.13671875 C17.05379766 23.36629766 17.42625769 21.3713807 17.19921875 17.51171875 C17.12445313 16.32320312 17.0496875 15.1346875 16.97265625 13.91015625 C16.92367188 12.99492187 16.8746875 12.0796875 16.82421875 11.13671875 C13.71443069 14.5885835 12.32258209 16.79240608 12.07421875 21.44921875 C12.0175 22.33222656 11.96078125 23.21523437 11.90234375 24.125 C11.8765625 24.78886719 11.85078125 25.45273438 11.82421875 26.13671875 C10.83421875 26.46671875 9.84421875 26.79671875 8.82421875 27.13671875 C7.83421875 26.47671875 6.84421875 25.81671875 5.82421875 25.13671875 C5.60314088 22.34818985 5.5431434 19.79018694 5.63671875 17.01171875 C5.65025391 16.25761719 5.66378906 15.50351563 5.67773438 14.7265625 C5.7131189 12.86297748 5.76692708 10.99975897 5.82421875 9.13671875 C1.01850412 13.94243338 0.11782886 19.66261578 -0.17578125 26.13671875 C-1.8419003 26.17943975 -3.5096101 26.17735707 -5.17578125 26.13671875 C-6.89145917 24.42104083 -6.3059395 22.1629914 -6.30859375 19.82421875 C-6.30988281 18.74914062 -6.31117188 17.6740625 -6.3125 16.56640625 C-6.30669922 14.86871094 -6.30669922 14.86871094 -6.30078125 13.13671875 C-6.30464844 12.00492188 -6.30851563 10.873125 -6.3125 9.70703125 C-6.31121094 8.63195312 -6.30992187 7.556875 -6.30859375 6.44921875 C-6.30746582 5.45535156 -6.30633789 4.46148437 -6.30517578 3.4375 C-6.06191888 -0.88788314 -3.79519207 0.00751523 0 0 Z " fill="#030000" transform="translate(254.17578125,119.86328125)"/>
<path d="M0 0 C2.6875 0.375 2.6875 0.375 6 2 C8.32018006 5.51324422 11 9.69567533 11 14 C11.66 13.67 12.32 13.34 13 13 C13.40197001 10.67750658 13.72686657 8.34114367 14 6 C14.31966139 4.33065717 14.64731066 2.6626783 15 1 C17.475 1.495 17.475 1.495 20 2 C21.28774583 6.32706726 20.64386843 10.22088551 20.0625 14.625 C19.26265033 21.13768759 18.78797911 27.42735234 19 34 C16.25 34.3125 16.25 34.3125 13 34 C9.0836085 30.54436044 7.60955951 25.89666228 5.83203125 21.109375 C5.18074567 19.04797061 5.18074567 19.04797061 4 18 C2.85922343 21.42232972 2.90184883 24.08673217 2.9375 27.6875 C2.94652344 28.86699219 2.95554687 30.04648438 2.96484375 31.26171875 C2.97644531 32.16535156 2.98804688 33.06898438 3 34 C0.625 34.1875 0.625 34.1875 -2 34 C-4.31148867 30.532767 -4.14759007 29.85505628 -3.6875 25.875 C-3.28772641 22.08179943 -2.94587154 18.30966432 -2.7734375 14.5 C-2.73774658 13.73445801 -2.70205566 12.96891602 -2.6652832 12.18017578 C-2.59741202 10.65799119 -2.53592422 9.13550694 -2.48120117 7.61279297 C-2.22111445 2.22111445 -2.22111445 2.22111445 0 0 Z " fill="#040000" transform="translate(300,112)"/>
<path d="M0 0 C1.65 0.33 3.3 0.66 5 1 C5 6.61 5 12.22 5 18 C9.46085114 12.42393608 10.11407845 10.73888667 10.62109375 4.09375 C11 2 11 2 13 0 C16.53571429 0.53571429 16.53571429 0.53571429 18 2 C18.08713831 3.70772358 18.10700007 5.41898649 18.09765625 7.12890625 C18.09443359 8.16337891 18.09121094 9.19785156 18.08789062 10.26367188 C18.07951172 11.35228516 18.07113281 12.44089844 18.0625 13.5625 C18.05798828 14.65498047 18.05347656 15.74746094 18.04882812 16.87304688 C18.03699826 19.58208495 18.02051543 22.29101599 18 25 C14.22779212 25.85933044 11.77379204 25.81595503 8 25 C7.34 25.33 6.68 25.66 6 26 C3 26.25 3 26.25 0 26 C-2.23278283 22.65082575 -2.20957032 21.79870783 -2.01171875 17.9296875 C-1.96466797 16.95128906 -1.91761719 15.97289062 -1.86914062 14.96484375 C-1.80919922 13.94519531 -1.74925781 12.92554688 -1.6875 11.875 C-1.63916016 10.84761719 -1.59082031 9.82023438 -1.54101562 8.76171875 C-1.14349956 1.14349956 -1.14349956 1.14349956 0 0 Z " fill="#030000" transform="translate(225,120)"/>
<path d="M0 0 C1.65 0.33 3.3 0.66 5 1 C5 5.95 5 10.9 5 16 C9.12750398 14.45490826 9.12750398 14.45490826 10.25 11.3125 C11.0519862 7.77039428 11.14480265 4.62006622 11 1 C13.3125 0.3125 13.3125 0.3125 16 0 C17.875 1.125 17.875 1.125 19 3 C18.67358032 4.6680345 18.33864793 6.33440507 18 8 C17.93260899 10.35329411 17.91483973 12.70835021 17.9375 15.0625 C17.94652344 16.27035156 17.95554687 17.47820312 17.96484375 18.72265625 C17.97644531 19.80417969 17.98804687 20.88570312 18 22 C18 23.32 18 24.64 18 26 C13.44615385 26.36923077 13.44615385 26.36923077 11.1875 24.5 C10.5996875 23.7575 10.5996875 23.7575 10 23 C9.0925 23.680625 8.185 24.36125 7.25 25.0625 C4 27 4 27 1.75 27.125 C-1.03818721 25.33259394 -1.20009545 23.156574 -2 20 C-2.00823921 17.22613348 -1.92456812 14.62295093 -1.6875 11.875 C-1.63916016 11.17246094 -1.59082031 10.46992188 -1.54101562 9.74609375 C-1.2918925 6.40973589 -0.97269509 3.20906244 0 0 Z " fill="#040000" transform="translate(27,120)"/>
<path d="M0 0 C3.38363291 3.03659363 4.3847899 5.5888127 5 10 C4.73351533 15.09550988 3.78649647 19.71153947 0.375 23.625 C-2.02914086 25.68821135 -3.90294245 26.45456476 -7.0625 26.6875 C-11 26 -11 26 -14 24.1875 C-16.94814517 19.48889363 -16.70433577 15.40248759 -16 10 C-15.108556 6.23007651 -13.76418517 3.67684973 -10.8125 1.0625 C-6.79456302 -0.4553873 -4.30343541 -0.54646799 0 0 Z M-8.625 6.3125 C-11.52990247 9.87760757 -11.23578442 13.5986908 -11 18 C-10.01 19.485 -10.01 19.485 -9 21 C-6.41619823 21.25030977 -6.41619823 21.25030977 -4 21 C-1.60732602 16.81282053 -0.36820355 13.8437728 -1 9 C-2.17558668 6.59696445 -2.17558668 6.59696445 -4 5 C-6.95917056 4.68583145 -6.95917056 4.68583145 -8.625 6.3125 Z " fill="#050000" transform="translate(106,120)"/>
<path d="M0 0 C2.36497439 1.86708505 3.66030715 3.32061431 5 6 C5.77365685 13.30510603 4.45373728 18.31939408 0.375 24.4375 C-2.77114713 26.50733364 -5.15806561 26.62650674 -8.875 26.44921875 C-11 26 -11 26 -13.5 23.875 C-16.29869 18.51084416 -16.37548625 13.97256625 -14.91796875 8.19140625 C-12.22626853 1.76568784 -6.85030813 -1.29251097 0 0 Z M-7.625 6 C-9.73496168 9.06903517 -10.02832906 12.35971617 -10 16 C-9.1956805 18.89765372 -9.1956805 18.89765372 -8 21 C-6.35 21 -4.7 21 -3 21 C-0.36415088 15.83373572 0.48880472 12.84069543 -1 7 C-1.66 6.34 -2.32 5.68 -3 5 C-5.89217787 4.73795129 -5.89217787 4.73795129 -7.625 6 Z " fill="#060000" transform="translate(384,120)"/>
<path d="M0 0 C1 1 1 1 1.0625 4.5625 C1.041875 5.696875 1.02125 6.83125 1 8 C-1.97 7.505 -1.97 7.505 -5 7 C-2.88528678 10.62574333 -2.88528678 10.62574333 -0.25 13.875 C1.67103061 17.14075204 0.9086604 19.43026273 0 23 C-1.65916763 25.61973836 -2.83133214 25.94752555 -5.8125 26.875 C-9.79256339 27.03108092 -11.74471613 26.27112828 -15 24 C-15.875 21.3125 -15.875 21.3125 -16 19 C-14.25 18.3125 -14.25 18.3125 -12 18 C-9.875 19.4375 -9.875 19.4375 -8 21 C-7.34 21 -6.68 21 -6 21 C-6.56865108 17.68760747 -7.45960947 16.28677464 -10 14.125 C-12.23615563 11.97547509 -13.02750891 10.92905597 -14.1875 7.9375 C-14 5 -14 5 -11.75 2.1875 C-7.50699321 -1.18761904 -5.14951327 -1.11945941 0 0 Z " fill="#050100" transform="translate(129,120)"/>
<path d="M0 0 C1.32 0.66 2.64 1.32 4 2 C3.40041148 31.79954933 3.40041148 31.79954933 -5 41 C-8 43 -8 43 -10.26171875 42.7578125 C-11.06222656 42.54898438 -11.86273438 42.34015625 -12.6875 42.125 C-13.49574219 41.92132813 -14.30398437 41.71765625 -15.13671875 41.5078125 C-15.75160156 41.34023437 -16.36648437 41.17265625 -17 41 C-17 39.02 -17 37.04 -17 35 C-13.30458414 34.04975021 -10.69541586 34.04975021 -7 35 C-6.525625 33.96875 -6.05125 32.9375 -5.5625 31.875 C-5.29566406 31.29492188 -5.02882813 30.71484375 -4.75390625 30.1171875 C-2.39469229 23.49183017 -2.97491869 16.63549424 -3.21484375 9.72460938 C-3.22902344 8.90412109 -3.24320313 8.08363281 -3.2578125 7.23828125 C-3.29092529 6.1251355 -3.29092529 6.1251355 -3.32470703 4.98950195 C-2.91325559 2.46851116 -1.92799595 1.60476004 0 0 Z " fill="#050000" transform="translate(17,112)"/>
<path d="M0 0 C0.33 1.65 0.66 3.3 1 5 C0.45730469 5.24234375 -0.08539063 5.4846875 -0.64453125 5.734375 C-6.34396403 8.23480878 -6.34396403 8.23480878 -10 13 C-10.8033421 17.34608078 -11 21.58453721 -11 26 C-11.99 26.33 -12.98 26.66 -14 27 C-16.17456055 25.89306641 -16.17456055 25.89306641 -18 24 C-18.37817383 21.56396484 -18.37817383 21.56396484 -18.20703125 18.7109375 C-18.15353516 17.68742187 -18.10003906 16.66390625 -18.04492188 15.609375 C-17.96822266 14.54203125 -17.89152344 13.4746875 -17.8125 12.375 C-17.75513672 11.29992187 -17.69777344 10.22484375 -17.63867188 9.1171875 C-17.17220511 1.17220511 -17.17220511 1.17220511 -16 0 C-13.70418219 -0.07188471 -11.42482931 0.00353568 -9.12890625 0.0625 C-0.77199347 -0.18284056 -0.77199347 -0.18284056 0 0 Z " fill="#040000" transform="translate(471,120)"/>
<path d="M0 0 C2.33595238 0.31445513 4.66905466 0.6503582 7 1 C10.30714584 0.63112347 10.30714584 0.63112347 13 0 C13.33 1.65 13.66 3.3 14 5 C10.25 8 10.25 8 8 8 C4.77614705 13.52660506 3.68324598 19.66491954 4 26 C-0.875 25.125 -0.875 25.125 -2 24 C-2.25156269 20.36100825 -2.18522226 16.70916327 -2.1875 13.0625 C-2.19974609 12.03447266 -2.21199219 11.00644531 -2.22460938 9.94726562 C-2.22654297 8.96564453 -2.22847656 7.98402344 -2.23046875 6.97265625 C-2.23457764 6.06781494 -2.23868652 5.16297363 -2.24291992 4.23071289 C-2 2 -2 2 0 0 Z " fill="#060100" transform="translate(195,120)"/>
</svg>
